<svg width="64" height="64" viewBox="0 0 64 64" fill="none" xmlns="http://www.w3.org/2000/svg">
<path d="M14.6752 10.7904C15.0912 13.8176 17.6896 16.16 20.832 16.16C24.2624 16.16 27.0464 13.3696 27.0464 9.9392C27.0464 6.5088 24.256 3.7184 20.832 3.7184C17.6896 3.7184 15.0912 6.0608 14.6752 9.088H14.0096C13.5424 9.088 13.1648 9.4656 13.1648 9.9328C13.1648 10.4 13.5424 10.7776 14.0096 10.7776H14.6752V10.7904ZM20.8256 14.464C18.624 14.464 16.7872 12.8768 16.3904 10.7904H25.2608C24.864 12.8768 23.0272 14.464 20.8256 14.464ZM20.8256 5.4208C23.0272 5.4208 24.864 7.008 25.2608 9.0944H16.3904C16.7872 7.0016 18.624 5.4208 20.8256 5.4208Z" fill="#261D57"/>
<path d="M42.2848 36.576L51.0592 45.3504C51.2256 45.5168 51.4432 45.6 51.6608 45.6C51.8784 45.6 52.096 45.5168 52.2624 45.3504L63.1104 34.496C63.2704 34.336 63.36 34.1248 63.36 33.8944C63.36 33.6704 63.2704 33.4528 63.1104 33.2928L57.9584 28.1408L54.336 24.5248C54.016 24.2048 53.4528 24.2048 53.1392 24.5248L48.608 29.056C48.6464 28.8576 48.672 28.6592 48.672 28.448C48.672 27.3728 48.1792 26.3744 47.3472 25.728L39.4368 19.1616C38.9248 18.624 38.2464 18.2656 37.5232 18.144C37.4976 18.1312 37.472 18.1248 37.44 18.1184L28.7872 15.904C28.1088 15.5904 27.392 15.4112 26.6432 15.36C26.5792 15.3472 26.5152 15.3472 26.4448 15.3472C26.3616 15.3408 26.2848 15.3408 26.2016 15.3408C24.0256 15.3408 21.9904 16.4992 20.864 18.368L16.9984 23.4624L10.144 21.7536C10.016 21.7088 9.54876 21.6064 9.54876 21.6064C9.45276 21.5872 9.36316 21.5808 9.26716 21.5936C8.40956 21.5424 7.60956 21.8304 6.97596 22.3232V19.2448C7.71836 18.5408 8.13436 17.5744 8.13436 16.5376C8.13436 15.1488 7.37276 13.8816 6.14396 13.2288C5.88156 13.088 5.56156 13.1008 5.31196 13.248C5.05596 13.4016 4.90236 13.6768 4.90236 13.9776V15.6032H3.87836V13.9776C3.87836 13.6768 3.72476 13.4016 3.46876 13.248C3.21276 13.0944 2.89916 13.088 2.63676 13.2288C1.40796 13.8816 0.646362 15.1488 0.646362 16.5376C0.646362 17.5744 1.06236 18.5408 1.80476 19.2448V29.6832C1.06236 30.3872 0.646362 31.3536 0.646362 32.3904C0.646362 33.7792 1.40796 35.0464 2.63676 35.6992C2.89916 35.84 3.21916 35.8272 3.47516 35.68C3.73116 35.5264 3.88476 35.2512 3.88476 34.9504V33.1136H4.90876V34.9504C4.90876 35.2512 5.06236 35.5264 5.31836 35.68C5.45276 35.7632 5.60636 35.8016 5.75356 35.8016C5.88796 35.8016 6.02876 35.7696 6.15036 35.7056C7.37916 35.0528 8.14076 33.7856 8.14076 32.3968C8.14076 31.36 7.72476 30.3936 6.98236 29.6896V27.776C7.53916 28.2048 8.22396 28.4736 8.97276 28.4928L17.3056 30.3616C17.408 30.3872 17.5232 30.3808 17.632 30.3552C19.04 30.5344 20.4352 29.8176 21.1072 28.5824L21.9008 27.168L25.568 35.6096L20.4608 39.9744C20.2752 40.1088 20.096 40.2624 19.9296 40.4224C19.9168 40.4352 19.9104 40.4416 19.8976 40.4544C19.1104 41.2672 18.6752 42.336 18.6752 43.4688C18.6752 44.1088 20.3264 50.496 21.44 54.7392L17.6448 56.1536C17.44 56.2304 17.2736 56.384 17.1776 56.5824C16.704 56.9536 16.4096 57.5296 16.4096 58.1504C16.4096 59.4496 18.2976 60.064 18.7648 60.064C18.784 60.064 18.8032 60.064 18.8224 60.064L25.3504 60.2368C25.536 60.2624 25.7216 60.2816 25.92 60.2816C26.112 60.2816 26.2976 60.2624 26.4768 60.2368H26.7584H26.7648C26.9632 60.2176 27.1936 60.1536 27.3472 60.0128C28.9024 59.424 29.9584 57.9264 29.9584 56.2368C29.9584 56.16 29.9584 56.0832 29.952 56.0064C29.9648 55.9424 29.9776 55.872 29.9776 55.8016C29.9776 55.6544 29.9392 55.5136 29.8688 55.3856C29.8048 55.0912 29.7088 54.7968 29.5744 54.5152L26.624 45.8368C26.6752 45.76 26.7264 45.6768 26.7712 45.5936L32.0384 40.8192L32.8384 44.8512C32.8512 44.896 32.8576 44.9408 32.8768 44.9856C33.312 46.1504 34.2336 47.072 35.3536 47.4944L45.952 52.1536V57.1072C45.952 57.3248 46.0352 57.5232 46.1632 57.6704C46.432 58.4512 47.168 58.9952 48.032 58.9952C48.9472 58.9952 49.7728 58.0352 50.0864 57.6192C50.1376 57.5552 50.176 57.4784 50.208 57.4016L52.5056 51.2384C52.7104 50.88 52.8512 50.496 52.9344 50.0864L52.9664 50.0032C53.0176 49.8752 53.024 49.7344 53.0048 49.6C53.0176 49.4912 53.0176 49.3824 53.0176 49.2736C53.0176 47.3728 51.6864 45.728 49.8368 45.3312L40.7168 41.2544L37.7408 31.8912C37.728 31.8592 37.7152 31.8208 37.7024 31.7888L34.2976 24.4672L35.4688 24.7104L42.912 31.0336C43.5456 31.5968 44.3584 31.904 45.2032 31.904C45.4144 31.904 45.6128 31.8784 45.8112 31.84L42.2784 35.3728C41.9584 35.7056 41.9584 36.2432 42.2848 36.576ZM5.75356 31.4048H3.03356C2.82876 31.4048 2.63676 31.4816 2.48956 31.6032C2.63036 31.264 2.85436 30.9632 3.16156 30.7328C3.37276 30.5728 3.50076 30.3232 3.50076 30.0544V18.8416C3.50076 18.5728 3.37916 18.3232 3.16156 18.1632C2.76476 17.8624 2.49596 17.4528 2.39356 16.9856C2.54716 17.1648 2.77756 17.28 3.03356 17.28H5.75356C6.00956 17.28 6.23996 17.1648 6.39356 16.992C6.28476 17.4528 6.01596 17.8688 5.62556 18.1632C5.41436 18.3232 5.28636 18.5728 5.28636 18.8416V30.0608C5.28636 30.3296 5.40796 30.5792 5.62556 30.7392C5.93276 30.9696 6.15676 31.2704 6.29756 31.6032C6.15036 31.4816 5.95836 31.4048 5.75356 31.4048ZM44.0256 29.7536L36.4032 23.2832C36.2944 23.1936 36.1664 23.1296 36.0256 23.0976L32.9856 22.464C32.672 22.4 32.3456 22.5152 32.1472 22.7648C31.9488 23.0144 31.904 23.36 32.0448 23.648L36.1408 32.4544L39.2192 42.1248C39.2896 42.3552 39.4624 42.5408 39.68 42.6432L49.2352 46.912C49.2928 46.9376 49.3568 46.9568 49.4208 46.9696C50.5216 47.1808 51.3216 48.1472 51.3216 49.2672C51.3216 49.376 51.3088 49.4848 51.296 49.5872C51.296 49.6064 51.2896 49.6256 51.2896 49.6448C51.2832 49.6576 51.2832 49.6768 51.2768 49.696C51.2256 49.9584 51.1296 50.2144 51.0016 50.4384C50.976 50.4832 50.9568 50.528 50.9376 50.5728L48.6656 56.6784C48.4352 56.9664 48.1152 57.2544 48.032 57.2864C47.8848 57.2864 47.7632 57.1712 47.7504 57.024C47.7376 56.9024 47.7056 56.7872 47.648 56.6848V51.5904C47.648 51.2512 47.4496 50.9504 47.1424 50.816L36 45.92C35.3152 45.6576 34.7648 45.12 34.496 44.4416L33.4528 39.2064C33.4848 38.9632 33.3888 38.72 33.2224 38.528C33.0304 38.304 32.6976 38.2016 32.4032 38.2528C32.3968 38.2528 32.32 38.2656 32.3136 38.2656C31.9744 38.3168 31.6992 38.5792 31.6224 38.912L25.5296 44.4288C25.4528 44.4992 25.3952 44.576 25.344 44.6656C25.2544 44.8384 25.152 44.9984 25.0304 45.1456C24.8448 45.3696 24.7872 45.6768 24.8768 45.9584L27.968 55.1104C27.9808 55.1424 27.9936 55.1808 28.0064 55.2128C28.096 55.3984 28.16 55.5904 28.1984 55.7888C28.2048 55.808 28.2048 55.8272 28.2112 55.8464C28.2112 55.8656 28.2176 55.8912 28.2176 55.9104C28.2304 56.0192 28.2432 56.128 28.2432 56.2432C28.2432 57.3056 27.5264 58.2336 26.496 58.5088C26.4576 58.5216 26.4256 58.5344 26.3872 58.5472C26.3488 58.5472 26.304 58.5536 26.2656 58.56C26.0288 58.5984 25.7728 58.5984 25.5296 58.56C25.4976 58.5536 25.4592 58.5536 25.4208 58.5536L18.7904 58.3744C18.6048 58.3232 18.272 58.1696 18.1056 58.0416C18.144 57.9648 18.208 57.9136 18.272 57.888C18.4384 57.824 18.5728 57.7152 18.6688 57.5808L22.7392 56.064C23.1488 55.9104 23.3728 55.4752 23.264 55.0528C22.176 50.9248 20.4224 44.1152 20.3648 43.4752C20.3648 42.7776 20.6336 42.1248 21.1264 41.6256C21.1328 41.6192 21.1328 41.6192 21.1392 41.6128C21.2352 41.5168 21.344 41.4272 21.504 41.312L27.1424 36.4928C27.424 36.2496 27.52 35.8528 27.3664 35.5072L22.7648 24.9216C22.6368 24.6272 22.3488 24.4288 22.0288 24.4096C21.7088 24.3968 21.4016 24.5632 21.248 24.8448L19.616 27.7632C19.2512 28.4352 18.4384 28.7936 17.7152 28.6528C17.632 28.6336 17.536 28.64 17.44 28.6592L9.24796 26.8224C9.18396 26.8096 9.12636 26.8032 9.06236 26.8032C8.08956 26.8032 7.29596 26.0096 7.29596 25.0368C7.29596 23.9936 8.24316 23.1744 9.26076 23.2832C9.27996 23.2832 9.29916 23.2896 9.31836 23.2896C9.42716 23.3152 9.57436 23.3536 9.66396 23.3792L17.1136 25.2416C17.4464 25.3248 17.792 25.2032 17.9968 24.9344L22.1696 19.4304C22.208 19.3856 22.24 19.3408 22.272 19.2896C23.0784 17.9008 24.576 17.0368 26.1824 17.0368C26.24 17.0368 26.2976 17.0432 26.4256 17.0496C26.4384 17.0496 26.4512 17.0496 26.464 17.0496C27.0464 17.088 27.6032 17.2288 28.1152 17.472C28.1664 17.4976 28.2176 17.5168 28.2688 17.5296L36.9088 19.744C36.9856 19.776 37.0624 19.8016 37.152 19.8144C37.5552 19.8656 37.9328 20.064 38.2144 20.3648C38.24 20.3904 38.2656 20.416 38.2976 20.4416L46.272 27.0592C46.7072 27.3984 46.9568 27.904 46.9568 28.4544C46.9568 29.4272 46.1632 30.2208 45.1904 30.2208C44.7808 30.2144 44.3648 30.0544 44.0256 29.7536ZM51.6608 43.552L47.7056 39.5968L51.9296 35.3728L52.1024 35.5456C52.2688 35.712 52.4864 35.7952 52.704 35.7952C52.9216 35.7952 53.1392 35.712 53.3056 35.5456C53.6384 35.2128 53.6384 34.6752 53.3056 34.3488L53.1328 34.176L57.3568 29.952L61.312 33.9072L51.6608 43.552ZM53.7408 26.3232L56.16 28.7424L51.328 33.568L46.5024 38.3936L44.0832 35.9744L53.7408 26.3232Z" fill="#261D57"/>
</svg>
