<svg width="100" height="100" viewBox="0 0 100 100" fill="none" xmlns="http://www.w3.org/2000/svg">
<path d="M95.4039 0H4.59609C2.06191 0 0 2.06172 0 4.59609V95.4039C0 97.9381 2.06191 100 4.59609 100H95.4039C97.9381 100 100 97.9381 100 95.4039V4.59609C100 2.06172 97.9381 0 95.4039 0V0ZM97.0703 95.4039C97.0703 96.3228 96.3227 97.0703 95.4039 97.0703H59.2932V93.8383C59.2932 93.0293 58.6373 92.3734 57.8283 92.3734C57.0193 92.3734 56.3635 93.0293 56.3635 93.8383V97.0703H51.4648V93.8383C51.4648 93.0293 50.809 92.3734 50 92.3734C49.191 92.3734 48.5352 93.0293 48.5352 93.8383V97.0703H43.6365V93.8383C43.6365 93.0293 42.9807 92.3734 42.1717 92.3734C41.3627 92.3734 40.7068 93.0293 40.7068 93.8383V97.0703H4.59609C3.67715 97.0703 2.92969 96.3227 2.92969 95.4039V4.59609C2.92969 3.67715 3.67734 2.92969 4.59609 2.92969H40.7068V6.16172C40.7068 6.9707 41.3627 7.62656 42.1717 7.62656C42.9807 7.62656 43.6365 6.9707 43.6365 6.16172V2.92969H48.5352V6.16172C48.5352 6.9707 49.191 7.62656 50 7.62656C50.809 7.62656 51.4648 6.9707 51.4648 6.16172V2.92969H56.3635V6.16172C56.3635 6.9707 57.0193 7.62656 57.8283 7.62656C58.6373 7.62656 59.2932 6.9707 59.2932 6.16172V2.92969H95.4039C96.3228 2.92969 97.0703 3.67715 97.0703 4.59609V95.4039Z" fill="#261D57"/>
<path d="M82.8787 6.26245H68.7871C65.0271 6.26245 61.8877 8.96245 61.2013 12.5251H38.7986C38.1123 8.96265 34.9726 6.26245 31.2128 6.26245H17.1212C11.1337 6.26245 6.26245 11.1337 6.26245 17.1212V82.8785C6.26245 88.866 11.1335 93.7373 17.1212 93.7373H31.2128C34.9726 93.7373 38.1123 91.0373 38.7986 87.4748H61.2011C61.8875 91.0373 65.0271 93.7373 68.7869 93.7373H82.8785C88.866 93.7373 93.7373 88.8662 93.7373 82.8785C93.7373 82.0695 93.0814 81.4136 92.2724 81.4136C91.4634 81.4136 90.8076 82.0695 90.8076 82.8785C90.8076 87.2505 87.2507 90.8076 82.8785 90.8076H68.7871C66.6525 90.8076 64.8398 89.4058 64.2193 87.4748H82.8787C85.413 87.4748 87.4748 85.4128 87.4748 82.8787V17.1212C87.4748 14.5869 85.4128 12.5251 82.8787 12.5251H64.2193C64.8398 10.5941 66.6525 9.19214 68.7871 9.19214H82.8787C87.2507 9.19214 90.8078 12.7492 90.8078 17.1212V76.6164C90.8078 77.4253 91.4636 78.0812 92.2726 78.0812C93.0816 78.0812 93.7375 77.4253 93.7375 76.6164V17.1212C93.7375 11.1337 88.8662 6.26245 82.8787 6.26245V6.26245ZM84.5451 17.1212V82.8785C84.5451 83.7974 83.7974 84.5449 82.8787 84.5449H17.1212C16.2023 84.5449 15.4548 83.7972 15.4548 82.8785V26.5152C15.4548 25.7062 14.799 25.0503 13.99 25.0503C13.181 25.0503 12.5251 25.7062 12.5251 26.5152V82.8785C12.5251 85.4128 14.5871 87.4746 17.1212 87.4746H35.7806C35.1601 89.4056 33.3474 90.8074 31.2128 90.8074H17.1212C12.7492 90.8074 9.19214 87.2505 9.19214 82.8783V17.1212C9.19214 12.7492 12.749 9.19214 17.1212 9.19214H31.2128C33.3474 9.19214 35.1601 10.5939 35.7806 12.5251H17.1212C14.5869 12.5251 12.5251 14.5869 12.5251 17.1212V20.2527C12.5251 21.0617 13.181 21.7175 13.99 21.7175C14.799 21.7175 15.4548 21.0617 15.4548 20.2527V17.1212C15.4548 16.2023 16.2025 15.4548 17.1212 15.4548H82.8787C83.7974 15.4548 84.5451 16.2025 84.5451 17.1212V17.1212Z" fill="#261D57"/>
<path d="M33.8329 42.6943C35.2892 42.6943 36.6937 43.1232 37.8944 43.9344C38.5649 44.3873 39.4755 44.2109 39.9284 43.5406C40.3814 42.8703 40.205 41.9598 39.5347 41.5068C37.8476 40.3672 35.8761 39.7646 33.8331 39.7646C28.211 39.7646 23.6372 44.3385 23.6372 49.9604C23.6372 55.5822 28.2108 60.1562 33.8329 60.1562C36.0591 60.1562 38.053 59.4285 39.5987 58.0518C39.9019 57.7818 40.1901 57.4844 40.4556 57.168C40.9755 56.548 40.8944 55.6242 40.2745 55.1043C39.6548 54.5844 38.7308 54.6654 38.2108 55.2854C38.0364 55.4934 37.8478 55.6879 37.6503 55.8639C36.6351 56.768 35.3507 57.2266 33.8329 57.2266C29.8263 57.2266 26.5667 53.967 26.5667 49.9605C26.5667 45.9541 29.8263 42.6943 33.8329 42.6943V42.6943Z" fill="#261D57"/>
<path d="M44.1733 58.6914C44.1733 59.5004 44.8292 60.1562 45.6382 60.1562C46.4472 60.1562 47.103 59.5004 47.103 58.6914V52.5633C48.2245 52.5572 49.7241 52.5498 50.5003 52.5498C54.0784 52.5498 56.9896 49.682 56.9896 46.1572C56.9896 42.6322 54.0786 39.7646 50.5003 39.7646H45.6382C45.2489 39.7646 44.8755 39.9195 44.6007 40.1953C44.3259 40.4711 44.172 40.8449 44.1733 41.2342V58.6914ZM50.5003 42.6943C52.4298 42.6943 54.0599 44.2801 54.0599 46.1572C54.0599 48.0344 52.4298 49.6201 50.5003 49.6201C49.728 49.6201 48.2489 49.6273 47.1286 49.6334C47.1226 48.482 47.1151 46.9453 47.1151 46.1572C47.1151 45.4914 47.111 43.8924 47.1073 42.6943H50.5003Z" fill="#261D57"/>
<path d="M61.9343 39.6416C61.1253 39.6416 60.4695 40.2975 60.4695 41.1064V53.0064C60.4695 57.0846 63.7859 60.2789 68.0197 60.2789H68.371C72.6048 60.2789 75.9212 57.0844 75.9212 53.0064V41.1064C75.9212 40.2975 75.2654 39.6416 74.4564 39.6416C73.6474 39.6416 72.9916 40.2975 72.9916 41.1064V53.0064C72.9916 55.4822 71.0052 57.3492 68.371 57.3492H68.0197C65.3855 57.3492 63.3992 55.4822 63.3992 53.0064V41.1064C63.3992 40.2975 62.7433 39.6416 61.9343 39.6416V39.6416Z" fill="#261D57"/>
<path d="M24.9497 35.8084H75.0507C75.8597 35.8084 76.5155 35.1526 76.5155 34.3436C76.5155 33.5346 75.8597 32.8787 75.0507 32.8787H24.9497C24.1407 32.8787 23.4849 33.5346 23.4849 34.3436C23.4849 35.1526 24.1407 35.8084 24.9497 35.8084V35.8084Z" fill="#261D57"/>
<path d="M24.9497 67.1213H75.0507C75.8597 67.1213 76.5155 66.4654 76.5155 65.6564C76.5155 64.8474 75.8597 64.1916 75.0507 64.1916H24.9497C24.1407 64.1916 23.4849 64.8474 23.4849 65.6564C23.4849 66.4654 24.1407 67.1213 24.9497 67.1213V67.1213Z" fill="#261D57"/>
</svg>
