<svg width="53" height="64" viewBox="0 0 53 64" fill="none" xmlns="http://www.w3.org/2000/svg">
<path d="M52.8928 33.2306C52.8928 25.337 45.9495 19.2311 38.0642 20.2973C38.2128 18.7496 37.4649 17.018 36.0847 16.039C36.2054 15.7369 36.2737 15.4084 36.2737 15.0638V7.86658C36.2737 5.60797 34.3146 3.96248 32.3146 4.11685C31.9186 4.14748 31.5809 3.9156 31.5126 3.5656C31.0434 1.16637 29.5325 0 26.8933 0H24.3251C23.8072 0 23.3876 0.419748 23.3876 0.937495C23.3876 1.45524 23.8072 1.87499 24.3251 1.87499H26.8933C29.0896 1.87499 29.4612 2.84486 29.6724 3.92535C29.9222 5.20334 31.1194 6.08921 32.4583 5.98634C33.4037 5.91259 34.3985 6.73521 34.3985 7.86658V15.0639C34.3985 16.5367 31.3273 15.7849 31.3273 13.5198C31.3273 13.0118 30.9831 12.5708 30.4902 12.4472C29.9978 12.3237 29.4875 12.5501 29.2482 12.9973C28.3148 14.7429 26.5075 15.8274 24.5314 15.8274C23.3877 15.8274 14.978 15.8274 13.7982 15.8274C12.8863 15.8274 12.0896 15.0855 12.0896 14.1188V7.22183C12.0896 4.2736 14.4882 1.87499 17.4364 1.87499H19.95C20.4679 1.87499 20.8875 1.45524 20.8875 0.937495C20.8875 0.419748 20.4679 0 19.95 0H17.4364C13.4543 0 10.2146 3.23973 10.2146 7.22183V14.1188C10.2146 15.0862 10.6006 15.9647 11.2258 16.61C10.3453 17.4889 9.79119 18.7151 9.79119 19.9365C9.79119 22.1834 11.7364 24.0184 14.0424 24.3034C14.3599 27.0261 15.7953 29.4981 18.0594 31.1138V33.5281C18.0044 33.5576 16.1602 34.2684 16.1019 34.291H10.6216C8.71182 34.291 7.15808 35.8448 7.15808 37.7545V37.7584L5.47847 38.4095C5.47247 38.4119 5.46659 38.4143 5.46059 38.4166C2.83061 39.499 0 42.6005 0 46.8526V61.4364C0 62.85 1.14999 64 2.56361 64H45.4192C46.8328 64 47.9828 62.85 47.9828 61.4364V55.8567C47.9828 55.3389 47.5632 54.9192 47.0453 54.9192C46.5275 54.9192 46.1079 55.3389 46.1079 55.8567V61.4364C46.1079 61.8161 45.7989 62.125 45.4192 62.125H42.747C42.8699 61.8021 42.9377 61.4521 42.9377 61.0863V59.6214C42.9377 58.8697 42.328 58.258 41.5785 58.258H40.4823C40.7011 57.8024 40.8249 57.2979 40.8249 56.7738V46.2472C42.5872 46.1166 44.2795 45.6352 45.8214 44.8385C46.0116 45.4962 46.1077 46.1705 46.1077 46.8526V51.4817C46.1077 51.9994 46.5274 52.4192 47.0452 52.4192C47.5631 52.4192 47.9827 51.9994 47.9827 51.4817V46.8526C47.9827 45.8217 47.8063 44.8081 47.4632 43.8284C50.7776 41.4336 52.8928 37.5879 52.8928 33.2306V33.2306ZM13.9727 22.3902C12.6842 22.1054 11.6662 21.0848 11.6662 19.9366C11.6662 19.0595 12.2013 18.1123 12.9523 17.6008C13.3272 17.6919 13.6124 17.7025 13.9727 17.7025V22.3902ZM33.9021 17.6889C34.2194 17.6568 34.5395 17.5563 34.7902 17.4341C35.9057 18.0558 36.5203 19.6179 36.0409 20.7359C35.303 20.9591 34.5879 21.2485 33.9021 21.5995V17.6889ZM15.8477 23.1464V17.7024H24.5314C26.571 17.7024 28.5197 16.828 29.8711 15.343C30.3118 16.2494 31.0718 16.9717 32.0026 17.368C32.0108 17.3715 32.0188 17.3755 32.0271 17.379V22.7711C29.3932 24.747 27.7041 27.5328 27.0701 30.5171C22.0442 32.5813 15.8477 29.1195 15.8477 23.1464V23.1464ZM26.8295 34.291H19.7923C19.887 34.0708 19.9345 33.8256 19.9345 33.5561V32.1638C21.9595 33.0196 24.4855 33.2693 26.8018 32.5956C26.7743 33.1581 26.7835 33.7248 26.8295 34.291V34.291ZM9.0332 37.7545C9.0332 36.8787 9.74582 36.166 10.6217 36.166H27.1191C28.3207 41.3814 32.6583 45.6815 38.9501 46.2535V56.774C38.9501 57.4303 38.5335 58.0243 37.9233 58.2583H10.0599C9.44969 58.0243 9.0332 57.4304 9.0332 56.774C9.0332 54.3624 9.0332 38.2688 9.0332 37.7545V37.7545ZM37.4382 31.8953L38.0327 34.1143C38.1629 34.6007 38.5459 34.9835 39.0319 35.1137L41.2513 35.7084C41.7371 35.8384 42.26 35.6984 42.6161 35.3425L45.961 31.9976C46.2969 36.869 40.2534 39.5965 36.8518 35.9188H36.8517C33.6297 32.4346 36.3744 26.6661 41.2141 27.12L37.8038 30.5303C37.4478 30.8864 37.3077 31.4096 37.4382 31.8953V31.8953ZM37.2957 38.6151L33.4844 42.4264C32.3626 41.6474 31.4124 40.6943 30.6453 39.584L34.4563 35.7729C34.4644 35.7879 34.4738 35.802 34.482 35.817C35.1312 36.9922 36.1278 37.9749 37.2957 38.6151V38.6151ZM5.04535 59.6215V61.0864C5.04535 61.4523 5.11335 61.8023 5.23609 62.1251H2.56386C2.18424 62.1251 1.87524 61.8163 1.87524 61.4365V46.8526C1.87524 43.2396 4.4376 40.8698 6.16559 40.1541L7.15808 39.7694V56.774C7.15808 57.2982 7.28183 57.8027 7.50071 58.2583H6.40434C5.65497 58.2582 5.04535 58.8697 5.04535 59.6215V59.6215ZM41.063 60.1331V61.0863C41.063 61.6586 40.6063 62.1243 40.0445 62.125H7.93858C7.37696 62.1244 6.92021 61.6586 6.92021 61.0863V60.1331H41.063ZM35.1712 43.3914L39.2314 39.3311C44.3211 40.401 48.7517 35.8994 47.6936 30.8787C47.4495 29.7205 46.0145 29.2926 45.1767 30.1301L41.4788 33.8282L39.7748 33.3716L39.3183 31.6676L43.0665 27.9192C43.8951 27.091 43.485 25.6749 42.3424 25.4084C37.3278 24.2382 32.6663 28.6371 33.7483 33.8293L29.6818 37.8958C26.2795 30.4669 31.7349 22.0524 39.8394 22.0524C46.0175 22.0524 51.0177 27.0518 51.0177 33.2306C51.0178 41.4241 42.5129 46.7692 35.1712 43.3914V43.3914Z" fill="#261D57"/>
<path d="M21.8132 49.0985H24.675C25.1929 49.0985 25.6125 48.6788 25.6125 48.161C25.6125 47.6433 25.1929 47.2235 24.675 47.2235H21.8132C21.2954 47.2235 20.8757 47.6433 20.8757 48.161C20.8757 48.6788 21.2954 49.0985 21.8132 49.0985Z" fill="#261D57"/>
</svg>
