<svg width="100" height="100" viewBox="0 0 100 100" fill="none" xmlns="http://www.w3.org/2000/svg">
<path d="M90.7461 67.595V63.8926V41.6682V19.4439C90.7461 17.4099 89.0777 15.7415 87.039 15.7415H12.9657C10.9282 15.7415 9.25505 17.4017 9.25505 19.4439V41.6682V63.8926V67.595L0 78.7072C0 81.7688 2.48629 84.2586 5.55139 84.2586H94.4486C97.5137 84.2586 100 81.7676 100 78.7072L90.7461 67.595ZM57.4144 82.4144H42.5997C42.0842 82.4144 41.6729 82.0031 41.6729 81.4876C41.6729 80.972 42.0842 80.5608 42.5997 80.5608H57.4144C57.9217 80.5608 58.3411 80.972 58.3411 81.4876C58.3283 82.0031 57.9217 82.4144 57.4144 82.4144ZM34.7331 78.7119L37.5592 75.3199H62.442L65.2681 78.7119H34.7331ZM85.5298 61.0454C85.5298 62.8322 84.0746 64.278 82.3007 64.278H17.6993C15.9254 64.278 14.4702 62.8193 14.4702 61.0454V22.2993C14.4702 20.5125 15.9254 19.0667 17.6993 19.0667H82.3007C84.0746 19.0667 85.5298 20.5219 85.5298 22.2993V61.0454Z" fill="#261D57"/>
<path d="M56.5496 44.2764L47.4504 35.1772C48.2178 32.9252 47.7187 30.3511 45.9366 28.5608C44.2634 26.8876 41.8896 26.3639 39.7595 26.904L43.6764 30.8209L43.9026 32.8877L41.148 35.6341L39.0928 35.3998L35.1724 31.4923C34.6194 33.6306 35.1478 35.9915 36.8245 37.6693C38.623 39.4643 41.1983 39.9459 43.4503 39.1831L52.5413 48.2824C51.7786 50.5343 52.2777 53.105 54.0598 54.8988C55.7329 56.5673 58.1021 57.1004 60.2404 56.5556L56.32 52.6386L56.0938 50.5753L58.8367 47.8242L60.9082 48.0551L64.8251 51.9673C65.3829 49.8325 64.8497 47.4763 63.1684 45.7902C61.3804 44.0034 58.8062 43.5172 56.5496 44.2764Z" fill="#261D57"/>
</svg>
