<svg width="100" height="100" viewBox="0 0 100 100" fill="none" xmlns="http://www.w3.org/2000/svg">
<path d="M55.225 8.38797C54.842 8.57897 54.479 8.98097 54.268 9.44097L53.943 10.187H27.471H1V51.053V91.918H50H99V51.053V10.188H97.029H95.058L94.733 9.44197C94.427 8.75297 93.527 8.08297 92.876 8.08297C92.225 8.08297 91.326 8.75297 91.019 9.44197L90.694 10.188H88.78H86.847L86.522 9.42197C86.063 8.31197 85.374 8.08197 82.617 8.08197C79.937 8.08197 79.267 8.31197 78.77 9.44097L78.445 10.187H76.531H74.598L74.273 9.42097C73.814 8.31097 73.125 8.08097 70.368 8.08097C67.688 8.08097 67.018 8.31097 66.521 9.43997L66.196 10.186H64.282H62.349L62.024 9.41997C61.565 8.30997 60.895 8.07997 58.1 8.07997C56.431 8.08197 55.685 8.17797 55.225 8.38797ZM94.942 24.486L94.98 34.688H90.865H86.75V51.053V67.418H90.865H94.98V77.563V87.708H50H5.02V51.091C5.02 30.936 5.077 14.398 5.154 14.341C5.211 14.264 25.443 14.226 50.077 14.245L94.885 14.302L94.942 24.486ZM94.923 40.621C94.98 42.325 94.961 42.401 94.693 41.923C94.368 41.349 93.506 40.813 92.875 40.813C92.244 40.813 91.382 41.349 91.076 41.923C90.808 42.421 90.789 42.344 90.77 40.698C90.77 39.741 90.827 38.899 90.904 38.822C90.98 38.745 91.899 38.726 92.952 38.745L94.885 38.802L94.923 40.621ZM92.875 44.832C93.564 44.832 93.794 44.717 94.33 44.143L94.981 43.473V46.937V50.402L94.33 49.732C93.794 49.158 93.564 49.043 92.875 49.043C92.224 49.043 91.956 49.158 91.42 49.694L90.77 50.345V46.9V43.474L91.421 44.144C91.956 44.717 92.186 44.832 92.875 44.832ZM91.918 52.775C92.224 52.928 92.645 53.062 92.875 53.062C93.507 53.062 94.368 52.526 94.674 51.952C94.942 51.473 94.961 51.741 94.98 55.072C94.98 58.536 94.961 58.67 94.655 58.23C94.215 57.598 93.832 57.311 93.219 57.177C92.549 57.024 91.516 57.502 91.114 58.191C90.789 58.689 90.789 58.574 90.789 55.071C90.789 51.74 90.808 51.473 91.076 51.951C91.229 52.239 91.612 52.622 91.918 52.775ZM92.071 61.025C93.047 61.484 93.947 61.178 94.655 60.145C94.98 59.686 94.98 59.724 94.98 61.447V63.208H92.875H90.77V61.428C90.789 59.686 90.789 59.667 91.115 60.184C91.286 60.489 91.708 60.853 92.071 61.025Z" fill="#261D57"/>
<path d="M9.22998 24.543V30.668L15.317 30.63L21.385 30.573L21.442 24.486L21.48 18.418H15.355H9.22998V24.543ZM17.27 24.447V26.457H15.26H13.25V24.447V22.437H15.26H17.27V24.447Z" fill="#261D57"/>
<path d="M26.3418 18.762C25.2888 19.604 25.2128 20.848 26.1508 21.786C26.8968 22.532 27.6818 22.647 28.5628 22.111C30.3048 21.097 29.5768 18.417 27.5678 18.417C27.0698 18.418 26.5718 18.552 26.3418 18.762Z" fill="#261D57"/>
<path d="M34.2859 18.973C32.9839 20.275 33.9609 22.437 35.8559 22.437C36.6789 22.437 37.7509 21.365 37.7509 20.542C37.7499 18.648 35.5869 17.671 34.2859 18.973Z" fill="#261D57"/>
<path d="M42.5731 18.896C41.8461 19.509 41.6541 20.274 42.0371 21.155C42.3241 21.863 43.1471 22.437 43.8751 22.437C44.5831 22.437 45.4251 21.863 45.7131 21.155C46.5161 19.241 44.1811 17.557 42.5731 18.896Z" fill="#261D57"/>
<path d="M50.8418 18.762C49.7888 19.604 49.7128 20.848 50.6508 21.786L51.3018 22.437H70.2898C87.6508 22.437 89.3158 22.418 89.8128 22.112C90.9228 21.461 91.1148 19.892 90.2148 18.973L89.6598 18.418H70.4418C52.5458 18.418 51.2248 18.456 50.8418 18.762Z" fill="#261D57"/>
<path d="M30.553 22.801C29.864 23.222 29.443 24.237 29.634 25.002C29.691 25.27 30.017 25.71 30.323 25.978C31.931 27.318 34.266 25.634 33.462 23.719C33.175 22.992 32.333 22.437 31.586 22.437C31.338 22.438 30.879 22.61 30.553 22.801Z" fill="#261D57"/>
<path d="M38.401 23.088C37.674 23.815 37.559 24.562 38.018 25.481C38.592 26.591 40.296 26.802 41.214 25.902C42.114 24.983 41.903 23.28 40.793 22.706C39.875 22.246 39.128 22.361 38.401 23.088Z" fill="#261D57"/>
<path d="M26.706 26.7249C26.074 27.0119 25.5 27.8729 25.5 28.563C25.5 29.271 26.074 30.113 26.782 30.401C28.734 31.224 30.419 28.7929 29.002 27.2239C28.371 26.5339 27.548 26.3609 26.706 26.7249Z" fill="#261D57"/>
<path d="M34.955 26.648C34.285 26.916 33.73 27.777 33.73 28.562C33.73 29.998 35.166 30.955 36.467 30.4C37.175 30.113 37.749 29.271 37.749 28.562C37.749 27.853 37.175 27.012 36.505 26.724C35.759 26.419 35.53 26.419 34.955 26.648Z" fill="#261D57"/>
<path d="M42.9748 26.763C42.2288 27.127 41.6928 28.179 41.8648 28.945C42.0178 29.653 42.7838 30.419 43.4918 30.572C44.2768 30.744 45.3098 30.208 45.6738 29.424C45.8458 29.08 45.9798 28.697 45.9798 28.563C45.9798 27.989 45.3288 27.032 44.7358 26.764C43.9518 26.38 43.7408 26.38 42.9748 26.763Z" fill="#261D57"/>
<path d="M51.206 26.744C50.574 27.012 50 27.873 50 28.562C50 29.27 50.574 30.112 51.244 30.4C52.22 30.802 88.549 30.802 89.506 30.4C90.865 29.826 91.209 28.295 90.214 27.184L89.659 26.552L70.729 26.514C54.919 26.476 51.723 26.514 51.206 26.744Z" fill="#261D57"/>
<path d="M10.207 34.9549C9.22998 35.4909 9.24998 35.1849 9.22998 49.1V62.097L9.78498 62.652C10.723 63.571 12.503 63.303 13.02 62.154C13.192 61.79 13.25 58.364 13.25 48.832V35.9889L12.599 35.3379C11.891 34.6299 11.049 34.4959 10.207 34.9549Z" fill="#261D57"/>
<path d="M18.2839 35.07C17.8819 35.3 17.5949 35.683 17.4609 36.161C17.3079 36.678 17.2699 40.697 17.3079 49.483L17.3649 62.097L17.9969 62.652C18.7239 63.303 19.7769 63.399 20.5039 62.901C21.4799 62.212 21.4799 62.231 21.4799 48.947C21.4799 35.395 21.4989 35.568 20.3509 34.993C19.5859 34.592 19.0309 34.611 18.2839 35.07Z" fill="#261D57"/>
<path d="M26.151 35.338C25.424 36.065 25.309 36.812 25.768 37.731C26.342 38.841 28.046 39.052 28.964 38.152C29.864 37.233 29.653 35.53 28.543 34.956C27.625 34.496 26.878 34.611 26.151 35.338Z" fill="#261D57"/>
<path d="M34.707 34.9549C33.731 35.4909 33.75 35.1849 33.731 49.1V62.097L34.286 62.652C35.224 63.571 37.004 63.303 37.521 62.154C37.6929 61.79 37.7509 58.364 37.7509 48.832V35.9889L37.1 35.3379C36.391 34.6299 35.549 34.4959 34.707 34.9549Z" fill="#261D57"/>
<path d="M42.7839 35.07C42.3819 35.3 42.0949 35.683 41.9609 36.161C41.8079 36.678 41.7699 40.697 41.8079 49.483L41.8649 62.097L42.4969 62.652C43.2239 63.303 44.2769 63.399 45.0039 62.901C45.9799 62.212 45.9799 62.231 45.9799 48.947C45.9799 35.395 45.9989 35.568 44.8509 34.993C44.0859 34.592 43.5309 34.611 42.7839 35.07Z" fill="#261D57"/>
<path d="M63.7431 34.8789C62.3461 35.1279 60.7381 35.6249 59.3981 36.2379C58.2111 36.7739 58.0771 36.7929 55.1491 36.7929H52.1061V39.8359C52.1061 42.7839 52.0871 42.8989 51.5321 44.1229C50.4031 46.6109 50.0961 48.1039 50.1161 51.0519C50.1351 54.0379 50.4611 55.6269 51.5131 57.8849C52.1061 59.1099 52.1061 59.1679 52.1061 62.2109V65.3119H55.2451C58.3271 65.3119 58.4031 65.3309 59.5901 65.8859C63.6291 67.7809 68.9312 67.7809 73.0842 65.8859C74.3472 65.3309 74.4242 65.3119 77.4862 65.3119H80.6252V62.1729C80.6252 59.1109 80.6442 59.0339 81.1992 57.7709C83.0752 53.6179 83.0752 48.3159 81.1992 44.2769C80.6442 43.0899 80.6252 43.0139 80.6252 39.9319V36.7929H77.5242C74.4812 36.7929 74.4232 36.7929 73.1982 36.1999C71.2462 35.2809 69.3322 34.8599 66.8431 34.7839C65.6381 34.7449 64.2411 34.7829 63.7431 34.8789ZM70.0402 39.3769C70.8632 39.6449 71.8582 40.0469 72.2412 40.2959L72.9682 40.7169L71.4752 41.8079C70.6712 42.4009 69.4652 43.3579 68.8142 43.9519C68.1822 44.5449 67.5311 45.0239 67.3981 45.0239C67.1301 45.0239 67.2641 42.3059 67.6081 40.6789C68.0501 38.5729 67.8582 38.6689 70.0402 39.3769ZM63.6861 39.5109C63.4371 40.6779 63.2071 42.4199 63.0931 44.1049C62.9971 45.4829 62.9021 45.9809 62.7101 45.9809C62.4231 45.9809 60.7581 44.0289 59.6281 42.4019C59.0921 41.6169 58.9961 41.3489 59.1491 41.1389C59.6081 40.5839 62.7671 39.1289 63.5511 39.0909C63.7051 39.0899 63.7621 39.2429 63.6861 39.5109ZM76.9312 44.9469C77.4862 45.9419 78.4052 48.2769 78.2712 48.3919C78.2522 48.4109 77.5442 48.3149 76.7012 48.1809C75.8592 48.0469 74.3272 47.8749 73.2942 47.7979C72.2802 47.7209 71.3802 47.5679 71.3032 47.4539C71.1122 47.1479 75.6672 43.5879 76.0882 43.7409C76.2042 43.7789 76.5862 44.3149 76.9312 44.9469ZM56.7371 45.3489C57.0821 45.8659 58.0201 47.0519 58.8421 48.0289C59.6651 49.0049 60.3351 49.8859 60.3351 50.0199C60.3351 50.1919 59.9521 50.2109 58.9181 50.1159C57.3491 49.9819 54.4011 49.4839 54.2481 49.3499C53.9991 49.0819 55.6451 44.4499 56.0091 44.4499C56.0681 44.4489 56.3931 44.8509 56.7371 45.3489ZM67.3991 49.3109C67.9922 49.6359 68.3752 50.3449 68.3752 51.1679C68.3752 51.9909 67.3032 53.0629 66.4802 53.0629C65.1791 53.0629 64.3551 52.2209 64.3551 50.8619C64.3551 49.4259 65.9821 48.5839 67.3991 49.3109ZM76.0312 52.2009C78.7302 52.6409 78.5382 52.4879 78.2132 53.8849C77.9072 55.1859 76.9112 57.4639 76.6432 57.4639C76.5662 57.4639 76.0692 56.8899 75.5332 56.1819C75.0162 55.4739 74.0972 54.3059 73.5042 53.6169C72.8912 52.9089 72.3942 52.2389 72.3942 52.1239C72.3952 51.8179 73.8682 51.8569 76.0312 52.2009ZM56.4311 53.9239C57.4651 54.0769 58.9391 54.2109 59.6851 54.2109C61.6181 54.2109 61.7711 54.4789 60.4891 55.5889C59.3981 56.5079 56.8141 58.4219 56.6421 58.4219C56.2781 58.4219 54.4031 54.5749 54.4031 53.8279C54.4021 53.5979 54.1731 53.5789 56.4311 53.9239ZM72.7962 59.3409C73.9062 60.9489 73.9642 60.7959 72.0112 61.8489C71.1112 62.3279 68.9482 63.0929 68.9482 62.9399C68.9482 62.9209 69.0822 62.0409 69.2352 60.9879C69.3882 59.9539 69.5222 58.4799 69.5222 57.7339C69.5222 55.8009 69.7712 55.6479 70.9192 56.9109C71.4182 57.4839 72.2612 58.5749 72.7962 59.3409ZM65.4272 58.4599C65.3512 59.2259 65.1591 60.6039 65.0061 61.5229C64.6611 63.3989 64.8151 63.3029 63.0151 62.7859C62.1151 62.5369 59.7611 61.4649 59.7611 61.3119C59.7801 61.2549 60.3931 60.7569 61.1391 60.2399C61.8851 59.7039 63.0151 58.7849 63.6661 58.1919C64.2981 57.5989 64.9872 57.1009 65.1972 57.0819C65.5232 57.0819 65.5422 57.1969 65.4272 58.4599Z" fill="#261D57"/>
<path d="M26.342 43.262C25.557 43.894 25.5 44.257 25.5 48.947C25.5 54.038 25.577 54.402 26.782 54.9C27.605 55.264 28.562 54.996 29.136 54.268C29.5 53.809 29.519 53.502 29.519 48.909V44.028L28.964 43.473C28.505 43.033 28.237 42.918 27.567 42.918C27.07 42.918 26.572 43.052 26.342 43.262Z" fill="#261D57"/>
<path d="M26.1509 59.838C24.8109 61.178 25.6529 63.188 27.5669 63.207C29.1169 63.207 29.9789 61.733 29.2899 60.24C29.0219 59.627 28.2179 59.187 27.3949 59.187C26.9739 59.188 26.6099 59.379 26.1509 59.838Z" fill="#261D57"/>
<path d="M9.26894 72.433C9.32594 77.065 9.36494 77.563 9.74794 78.577C10.5709 80.759 12.2549 82.501 14.2839 83.228C15.2029 83.573 16.1789 83.592 30.6299 83.649L45.9809 83.706V75.552V67.417H27.5859H9.21094L9.26894 72.433ZM41.7699 75.553V79.668H29.4239C20.9639 79.668 16.7719 79.591 16.0829 79.458C13.9969 78.999 13.2499 77.486 13.2499 73.697V71.438H27.5099H41.7699V75.553Z" fill="#261D57"/>
<path d="M18.0731 74.021C17.3461 74.634 17.1541 75.399 17.5371 76.28C18.0731 77.581 17.9771 77.562 27.7201 77.562H36.4481L37.0991 76.911C37.8261 76.184 37.9411 75.437 37.4821 74.518C36.9651 73.561 36.8501 73.542 27.4141 73.542H18.6481L18.0731 74.021Z" fill="#261D57"/>
<path d="M50.651 72.088C50.192 72.547 50 72.911 50 73.332C50 74.155 50.44 74.959 51.053 75.227C51.417 75.399 56.24 75.457 70.595 75.457H89.659L90.214 74.902C90.827 74.29 90.942 73.39 90.539 72.49C90.041 71.399 90.903 71.437 70.269 71.437H51.302L50.651 72.088Z" fill="#261D57"/>
<path d="M50.8418 80.012C49.7888 80.854 49.7128 82.098 50.6508 83.036L51.3018 83.687H70.2698C90.9028 83.687 90.0418 83.725 90.5398 82.634C90.9418 81.734 90.8268 80.835 90.2148 80.222L89.6598 79.667H70.4418C52.5458 79.668 51.2248 79.706 50.8418 80.012Z" fill="#261D57"/>
</svg>
