<svg width="100" height="100" viewBox="0 0 100 100" fill="none" xmlns="http://www.w3.org/2000/svg">
<path d="M93.4288 13.9956C93.2493 12.7063 92.3216 11.6457 91.0676 11.2972L50.8759 0.119821C50.3033 -0.0396557 49.6976 -0.0396557 49.1247 0.119821L8.93293 11.2972C7.67847 11.6457 6.7508 12.7059 6.57171 13.9956C6.3386 15.6719 1.02051 55.2784 14.661 74.9808C28.2854 94.6606 48.3844 99.7037 49.2332 99.9085C49.4854 99.9695 49.7425 99.9996 50.0005 99.9996C50.2584 99.9996 50.5155 99.9691 50.7678 99.9085C51.617 99.7033 71.7159 94.6601 85.3399 74.9808C98.98 55.2784 93.6619 15.6719 93.4288 13.9956ZM79.4698 70.9015C67.6528 87.9708 49.9517 92.2462 49.9517 92.2462V50H13.4719C11.3538 34.1447 13.6175 17.8584 13.6175 17.8584L49.9512 7.75381V50H86.431C85.4013 57.7094 83.336 65.3172 79.4698 70.9015Z" fill="#261D57"/>
</svg>
