<svg width="90" height="90" viewBox="0 0 90 90" fill="none" xmlns="http://www.w3.org/2000/svg">
<path d="M20.1388 11.2444C20.7353 16.0636 24.4621 19.7914 28.9689 19.7914C33.8879 19.7914 37.8898 15.3519 37.8898 9.89482C37.8898 4.43945 33.8879 0 28.9689 0C24.4619 0 20.7353 3.72728 20.1388 8.54579H19.1805C18.5087 8.54579 17.9639 9.15052 17.9639 9.89507C17.9639 10.6404 18.5087 11.2444 19.1805 11.2444H20.1388Z" fill="#261D57"/>
<path d="M59.7612 52.2836L72.3503 66.2464C72.5879 66.5089 72.8994 66.6417 73.2108 66.6417C73.5218 66.6417 73.8346 66.5089 74.071 66.2464L89.6437 48.9758C89.873 48.723 90 48.3801 90 48.0216C90 47.6647 89.8728 47.3208 89.6437 47.0677L82.2469 38.8651C82.2469 38.8638 82.2469 38.8626 82.2444 38.8611C82.2433 38.8598 82.2419 38.8598 82.2408 38.8586L77.0533 33.1045C76.597 32.5987 75.7889 32.5987 75.3326 33.1045L68.8299 40.3153C68.8819 39.9997 68.9177 39.6789 68.9177 39.3481C68.9177 37.6368 68.2144 36.0518 67.02 35.0246L55.6684 24.5695C54.93 23.7142 53.9631 23.1444 52.9187 22.9481C52.8798 22.9315 52.8404 22.9175 52.7987 22.9072L40.3806 19.3815C39.4109 18.8874 38.3756 18.595 37.3006 18.5111C37.2072 18.4921 37.1146 18.4883 37.0197 18.4921C36.9045 18.4843 36.7886 18.4768 36.6709 18.4768C33.546 18.4768 30.6249 20.3218 29.0165 23.2985L23.4696 31.404L13.6384 28.6803C13.4546 28.6136 12.7876 28.4411 12.7876 28.4411C12.6538 28.4075 12.5177 28.3977 12.3878 28.4168C11.1549 28.3317 10.0114 28.7923 9.09649 29.5758V24.6762C10.161 23.5521 10.7606 22.015 10.7606 20.3652C10.7606 18.1534 9.66576 16.1359 7.90409 15.0966C7.52563 14.874 7.07181 14.888 6.70625 15.1325C6.34047 15.3763 6.11639 15.8151 6.11639 16.2888V18.8741H4.64535V16.289C4.64535 15.8153 4.42126 15.3765 4.05526 15.1328C3.6888 14.8868 3.23384 14.8757 2.8581 15.0969C1.09507 16.1362 0 18.1549 0 20.3655C0 22.0165 0.60005 23.5523 1.66592 24.6764V41.2875C0.601408 42.4116 0 43.9467 0 45.5972C0 47.8085 1.09507 49.8273 2.8572 50.8655C3.23271 51.0867 3.6888 51.0737 4.05526 50.8312C4.42149 50.5872 4.64535 50.1484 4.64535 49.6742V46.7542H6.11639V49.6742C6.11639 50.1486 6.34047 50.5874 6.70625 50.8312C6.89888 50.9602 7.11572 51.0234 7.33324 51.0234C7.52903 51.0234 7.72641 50.9707 7.90522 50.8671C9.66689 49.827 10.7617 47.8083 10.7617 45.5985C10.7617 43.9484 10.1621 42.4116 9.09762 41.2888V38.2782C9.89799 38.957 10.8788 39.3845 11.9548 39.4199L23.911 42.3908C24.0559 42.4269 24.22 42.4192 24.3834 42.3803C26.4067 42.6634 28.4072 41.5202 29.3665 39.5567L30.5018 37.3047L35.7655 50.7385L28.4325 57.6845C28.1636 57.9019 27.9067 58.1394 27.6734 58.4002C27.6587 58.4158 27.6453 58.4348 27.6306 58.4504C26.4988 59.7442 25.8775 61.4454 25.8775 63.2458C25.8775 64.2642 28.2426 74.4266 29.8425 81.1778L24.394 83.4336C24.0986 83.5563 23.8576 83.8011 23.7215 84.1166C23.0377 84.7055 22.6154 85.6225 22.6154 86.6083C22.6154 88.6741 25.3275 89.6521 25.9982 89.6521C26.0237 89.6521 26.0504 89.6521 26.0772 89.6493L35.4419 89.929C35.7087 89.9714 35.9783 90 36.257 90C36.5297 90 36.7977 89.9739 37.0603 89.9317H37.4654C37.469 89.9317 37.4724 89.9317 37.4761 89.9317C37.7572 89.8983 38.0922 89.7999 38.312 89.5783C40.5424 88.6404 42.0549 86.2574 42.0549 83.5696C42.0549 83.4456 42.0512 83.3244 42.0442 83.2031C42.0669 83.0989 42.0791 82.9895 42.0791 82.8773C42.0791 82.6388 42.0232 82.4149 41.9245 82.2201C41.833 81.7482 41.6923 81.2858 41.5021 80.8389L37.2886 67.0223C37.3629 66.8973 37.4337 66.768 37.5003 66.6337L45.0628 59.0365L46.2147 65.4556C46.2285 65.5267 46.2462 65.5977 46.2686 65.6675C46.8971 67.5176 48.2111 68.9831 49.8211 69.6604L65.0279 77.0753V84.9566C65.0279 85.3007 65.1442 85.6155 65.3344 85.854C65.7241 87.0938 66.7769 87.9571 68.015 87.9571C69.3292 87.9571 70.5148 86.4286 70.9618 85.7722C71.034 85.667 71.0927 85.551 71.1327 85.4298L74.4281 75.6168C74.7179 75.0459 74.9247 74.4317 75.0436 73.7863L75.0895 73.652C75.1611 73.4434 75.1753 73.2222 75.1445 73.0061C75.1586 72.8346 75.1658 72.6607 75.1658 72.4872C75.1658 69.461 73.2577 66.8468 70.6033 66.2092L57.5165 59.7229L53.2424 44.8243C53.2272 44.769 53.208 44.7163 53.1867 44.6636L48.2985 33.0139L49.982 33.404L60.663 43.4657C61.5731 44.3604 62.7424 44.8531 63.9543 44.8531C64.2535 44.8531 64.5437 44.811 64.8289 44.7542L59.7619 50.3748C59.2863 50.9024 59.2863 51.7562 59.7612 52.2836Z" fill="#261D57"/>
</svg>
