<svg width="100" height="100" viewBox="0 0 100 100" fill="none" xmlns="http://www.w3.org/2000/svg">
<path d="M89.93 67.24V63.61V41.83V20.06C89.93 18.07 88.29 16.43 86.3 16.43H13.71C11.71 16.43 10.07 18.06 10.07 20.06V41.84V63.62V67.25L1 78.13C1 81.13 3.44 83.57 6.44 83.57H93.56C96.56 83.57 99 81.13 99 78.13L89.93 67.24ZM57.27 81.77H42.75C42.24 81.77 41.84 81.37 41.84 80.86C41.84 80.35 42.24 79.95 42.75 79.95H57.27C57.77 79.95 58.18 80.35 58.18 80.86C58.16 81.36 57.76 81.77 57.27 81.77ZM35.04 78.14L37.81 74.82H62.2L64.97 78.14H35.04ZM84.82 60.82C84.82 62.57 83.39 63.99 81.66 63.99H18.35C16.61 63.99 15.19 62.56 15.19 60.82V22.85C15.19 21.1 16.62 19.68 18.35 19.68H81.66C83.4 19.68 84.82 21.11 84.82 22.85V60.82Z" fill="#261D57"/>
<path d="M60.2201 38.37L63.3601 33.66L59.8801 30.16L55.1701 33.3C54.6701 33.05 54.1201 32.88 53.5901 32.7L52.4701 27.1H47.5401L46.4201 32.71C45.8801 32.9 45.3301 33.06 44.8401 33.31L40.1301 30.17L36.6501 33.66L39.7901 38.37C39.5301 38.88 39.3201 39.41 39.1301 39.97L33.5701 41.09V46.02L39.1301 47.13C39.3101 47.69 39.5301 48.22 39.7901 48.73L36.6501 53.44L40.1401 56.92L44.8501 53.78C45.3501 54.03 45.8901 54.19 46.4301 54.38L47.5501 59.99H52.4801L53.6001 54.38C54.1301 54.2 54.6901 54.03 55.1801 53.78L59.8901 56.92L63.3801 53.44L60.2401 48.73C60.5001 48.22 60.7101 47.69 60.9001 47.13L66.4601 46.02V41.09L60.9001 39.98C60.7001 39.41 60.4901 38.88 60.2201 38.37ZM50.0001 49.3C46.8201 49.3 44.2501 46.72 44.2501 43.55C44.2501 40.38 46.8301 37.8 50.0001 37.8C53.1801 37.8 55.7501 40.38 55.7501 43.55C55.7501 46.72 53.1801 49.3 50.0001 49.3Z" fill="#261D57"/>
</svg>
